<?xml version="1.0" encoding="iso-8859-1"?>
<!-- Generator: Adobe Illustrator 16.0.0, SVG Export Plug-In . SVG Version: 6.00 Build 0)  -->
<!DOCTYPE svg PUBLIC "-//W3C//DTD SVG 1.1//EN" "http://www.w3.org/Graphics/SVG/1.1/DTD/svg11.dtd">
<svg version="1.1" id="Capa_1" xmlns="http://www.w3.org/2000/svg" xmlns:xlink="http://www.w3.org/1999/xlink" x="0px" y="0px"
	 width="40" height="40" viewBox="0 0 554.625 554.625" style="enable-background:new 0 0 554.625 554.625;"
	 xml:space="preserve">
<g>
	<g>
		<path d="M430.312,355.725V143.438v-9.562L315.562,0H306H105.188c-21.038,0-38.25,17.212-38.25,38.25v439.875
			c0,21.037,17.212,38.25,38.25,38.25h196.987c19.125,22.95,47.812,38.25,80.325,38.25c57.375,0,105.188-47.812,105.188-105.188
			C487.688,409.275,464.737,372.938,430.312,355.725z M315.562,28.688l89.888,105.188h-70.763c-9.562,0-19.125-9.562-19.125-19.125
			V28.688z M105.188,497.25c-9.562,0-19.125-7.65-19.125-19.125V38.25c0-9.562,7.65-19.125,19.125-19.125h191.25v95.625
			c0,21.038,17.213,38.25,38.25,38.25h76.5v195.075c-9.562-1.913-19.125-3.825-28.688-3.825
			c-57.375,0-105.188,47.812-105.188,105.188c0,17.213,3.825,32.513,11.475,47.812H105.188z M382.5,535.5
			c-47.812,0-86.062-38.25-86.062-86.062s38.25-86.062,86.062-86.062s86.062,38.25,86.062,86.062S430.312,535.5,382.5,535.5z"/>
		<rect x="372.938" y="401.625" width="19.125" height="19.125"/>
		<polygon points="392.062,439.875 353.812,439.875 353.812,459 372.938,459 372.938,478.125 353.812,478.125 353.812,497.25 
			392.062,497.25 411.188,497.25 411.188,478.125 392.062,478.125 		"/>
	</g>
</g>
<g>
</g>
<g>
</g>
<g>
</g>
<g>
</g>
<g>
</g>
<g>
</g>
<g>
</g>
<g>
</g>
<g>
</g>
<g>
</g>
<g>
</g>
<g>
</g>
<g>
</g>
<g>
</g>
<g>
</g>
</svg>
